<?xml version="1.0" encoding="UTF-8"?>
<svg width="37px" height="51px" viewBox="0 0 37 51" version="1.1" xmlns="http://www.w3.org/2000/svg" xmlns:xlink="http://www.w3.org/1999/xlink">
    <!-- Generator: Sketch 53.2 (72643) - https://sketchapp.com -->
    <title>Shape</title>
    <desc>Created with Sketch.</desc>
    <g id="Page-1" stroke="none" stroke-width="1" fill="none" fill-rule="evenodd">
        <g id="Home-Copy-6" transform="translate(-574.000000, -4538.000000)" fill="#3283E6" fill-rule="nonzero">
            <g id="Group-4" transform="translate(0.000000, 4437.000000)">
                <g id="Group" transform="translate(165.000000, 43.000000)">
                    <g id="Group-19-Copy" transform="translate(409.000000, 0.000000)">
                        <g id="seo-and-web" transform="translate(0.000000, 58.000000)">
                            <path d="M18.5,0 C8.29904491,0 0,8.28571713 0,18.4701905 C0,31.1094403 16.5556877,49.6645976 17.2605608,50.4483251 C17.9226326,51.1845389 19.0785646,51.183244 19.7394392,50.4483251 C20.4443123,49.6645976 37,31.1094403 37,18.4701905 C36.9998005,8.28571713 28.7008553,0 18.5,0 Z M18.5,27.7630592 C13.367646,27.7630592 9.19228322,23.5943022 9.19228322,18.4701905 C9.19228322,13.3460788 13.3677458,9.17742134 18.5,9.17742134 C23.6322542,9.17742134 27.807617,13.3461784 27.807617,18.4702901 C27.807617,23.5944018 23.6322542,27.7630592 18.5,27.7630592 Z" id="Shape"></path>
                        </g>
                    </g>
                </g>
            </g>
        </g>
    </g>
</svg>