<?xml version="1.0" encoding="UTF-8"?>
<svg width="76px" height="35px" viewBox="0 0 76 35" version="1.1" xmlns="http://www.w3.org/2000/svg" xmlns:xlink="http://www.w3.org/1999/xlink">
    <!-- Generator: Sketch 53.2 (72643) - https://sketchapp.com -->
    <title>Combined Shape Copy</title>
    <desc>Created with Sketch.</desc>
    <defs>
        <path d="M50.1201467,15.9912727 C50.1072819,15.9880894 50.0938259,15.9864066 50.0799754,15.9864205 L47.3614289,15.9891428 L39.1631224,7.83803315 C38.4765812,7.15544427 37.6011322,6.6944026 36.6498748,6.51447011 L35.4653919,6.2904225 L40.9080654,15.9956049 L18.9405372,16.0176025 C15.1015611,15.5096656 11.5566919,13.5973689 9.01751118,10.6098204 L0,3.55271368e-13 L38.7469905,3.90798505e-13 C44.6546736,3.94960358e-13 50.2526512,2.64252964 54.0072659,7.20362469 L61.3743129,16.153092 L53.1596996,16.1338519 C52.7679445,16.053396 52.3666602,16.0054361 51.9665514,16.0027584 C51.2851728,15.9981983 50.6697046,15.9943698 50.1201467,15.9912727 Z M50.2461417,20.4824534 L51.9665514,20.4824534 C54.4048448,20.4824534 56.9929941,18.6744211 56.9929941,18.2324536 C56.9929941,17.8614939 55.2064201,16.5542056 53.1597405,16.1338603 L61.3740695,16.1546232 L76,35 L43.6448201,35 C35.8804295,35 28.7774639,30.6285551 25.2790404,23.6969757 L23.6701912,20.5092925 L40.8850113,20.4920542 L36.7527195,30.8744669 L37.7013704,30.6892136 C38.8085037,30.4730117 39.8053637,29.8769286 40.5197576,29.0039289 L47.490615,20.4854395 L50.2461417,20.4826802 Z" id="path-1"></path>
    </defs>
    <g id="Page-1" stroke="none" stroke-width="1" fill="none" fill-rule="evenodd">
        <g id="Home-Copy-6" transform="translate(-619.000000, -473.000000)">
            <g id="Group-9" transform="translate(0.000000, -73.000000)">
                <g id="Group-6" transform="translate(619.000000, 546.000000)">
                    <mask id="mask-2" fill="white">
                        <use xlink:href="#path-1"></use>
                    </mask>
                    <use id="Combined-Shape-Copy" fill="#0E1B2C" xlink:href="#path-1"></use>
                </g>
            </g>
        </g>
    </g>
</svg>