<?xml version="1.0" encoding="UTF-8"?>
<svg width="76px" height="35px" viewBox="0 0 76 35" version="1.1" xmlns="http://www.w3.org/2000/svg" xmlns:xlink="http://www.w3.org/1999/xlink">
    <!-- Generator: Sketch 53.2 (72643) - https://sketchapp.com -->
    <title>Combined Shape</title>
    <desc>Created with Sketch.</desc>
    <defs>
        <path d="M631.120147,124.991273 C631.107282,124.988089 631.093826,124.986407 631.079975,124.986421 L628.361429,124.989143 L620.163122,116.838033 C619.476581,116.155444 618.601132,115.694403 617.649875,115.51447 L616.465392,115.290423 L621.908065,124.995605 L599.940537,125.017602 C596.101561,124.509666 592.556692,122.597369 590.017511,119.60982 L581,109 L619.74699,109 C625.654674,109 631.252651,111.64253 635.007266,116.203625 L642.374313,125.153092 L634.1597,125.133852 C633.767945,125.053396 633.36666,125.005436 632.966551,125.002758 C632.285173,124.998198 631.669705,124.99437 631.120147,124.991273 Z M631.246142,129.482453 L632.966551,129.482453 C635.404845,129.482453 637.992994,127.674421 637.992994,127.232454 C637.992994,126.861494 636.20642,125.554206 634.15974,125.13386 L642.37407,125.154623 L657,144 L624.64482,144 C616.88043,144 609.777464,139.628555 606.27904,132.696976 L604.670191,129.509292 L621.885011,129.492054 L617.75272,139.874467 L618.70137,139.689214 C619.808504,139.473012 620.805364,138.876929 621.519758,138.003929 L628.490615,129.48544 L631.246142,129.48268 Z" id="path-1"></path>
    </defs>
    <g id="Page-1" stroke="none" stroke-width="1" fill="none" fill-rule="evenodd">
        <g id="Home-Copy-6" transform="translate(-581.000000, -36.000000)">
            <g id="Group-9" transform="translate(0.000000, -73.000000)">
                <g id="Group-8">
                    <mask id="mask-2" fill="white">
                        <use xlink:href="#path-1"></use>
                    </mask>
                    <use id="Combined-Shape" fill="#FFFFFF" xlink:href="#path-1"></use>
                </g>
            </g>
        </g>
    </g>
</svg>