<?xml version="1.0" encoding="UTF-8"?>
<svg width="68px" height="32px" viewBox="0 0 68 32" version="1.1" xmlns="http://www.w3.org/2000/svg" xmlns:xlink="http://www.w3.org/1999/xlink">
    <!-- Generator: Sketch 53.2 (72643) - https://sketchapp.com -->
    <title>Combined Shape</title>
    <desc>Created with Sketch.</desc>
    <defs>
        <path d="M186.843945,4737.62059 C186.832285,4737.61768 186.820083,4737.61614 186.807521,4737.61616 L184.376015,4737.61864 L177.047405,4730.17303 C176.429087,4729.54484 175.63476,4729.11898 174.769337,4728.95171 L173.732193,4728.75124 L178.601953,4737.62455 L159.050432,4737.64456 C155.550459,4737.17755 152.325012,4735.41362 150.038216,4732.66424 L142,4723 L176.503862,4723 C181.886721,4723 186.98009,4725.43737 190.356983,4729.62924 L196.913859,4737.76854 L189.563942,4737.75095 C189.213424,4737.67739 188.85438,4737.63354 188.496388,4737.63109 C187.88657,4737.62692 187.335755,4737.62342 186.843945,4737.62059 Z M186.957074,4741.72681 L188.496388,4741.72681 C190.678019,4741.72681 192.993732,4740.07376 192.993732,4739.66967 C192.993732,4739.33051 191.395218,4738.13527 189.563978,4737.75096 L196.913641,4737.76994 L210,4755 L181.227814,4755 C174.182246,4755 167.747262,4751.00124 164.627169,4744.68419 L163.178592,4741.75135 L178.581326,4741.73559 L174.884012,4751.22808 L175.709419,4751.06338 C176.71452,4750.86281 177.616727,4750.3143 178.257389,4749.5143 L184.491603,4741.72954 L186.957074,4741.72702 Z" id="path-1"></path>
    </defs>
    <g id="Page-1" stroke="none" stroke-width="1" fill="none" fill-rule="evenodd">
        <g id="Home-Copy-6" transform="translate(-142.000000, -4723.000000)">
            <mask id="mask-2" fill="white">
                <use xlink:href="#path-1"></use>
            </mask>
            <use id="Combined-Shape" fill="#FFFFFF" xlink:href="#path-1"></use>
        </g>
    </g>
</svg>