<?xml version="1.0" encoding="UTF-8"?>
<svg width="41px" height="41px" viewBox="0 0 41 41" version="1.1" xmlns="http://www.w3.org/2000/svg" xmlns:xlink="http://www.w3.org/1999/xlink">
    <!-- Generator: Sketch 53.2 (72643) - https://sketchapp.com -->
    <title>Shape</title>
    <desc>Created with Sketch.</desc>
    <g id="Page-1" stroke="none" stroke-width="1" fill="none" fill-rule="evenodd">
        <g id="Home-Copy-6" transform="translate(-1124.000000, -3806.000000)" fill="#3283E6" fill-rule="nonzero">
            <g id="Group-9" transform="translate(71.000000, 3791.000000)">
                <g id="Group-8">
                    <g id="Group-7" transform="translate(874.000000, 0.000000)">
                        <g id="Group-6">
                            <g id="file-solid" transform="translate(179.000000, 15.000000)">
                                <g id="thumbs-up-solid">
                                    <path d="M8.328125,17.9375 L1.921875,17.9375 C0.860439453,17.9375 0,18.7979395 0,19.859375 L0,39.078125 C0,40.1395605 0.860439453,41 1.921875,41 L8.328125,41 C9.38956055,41 10.25,40.1395605 10.25,39.078125 L10.25,19.859375 C10.25,18.7979395 9.38956055,17.9375 8.328125,17.9375 Z M5.125,37.796875 C4.06356445,37.796875 3.203125,36.9364355 3.203125,35.875 C3.203125,34.8135645 4.06356445,33.953125 5.125,33.953125 C6.18643555,33.953125 7.046875,34.8135645 7.046875,35.875 C7.046875,36.9364355 6.18643555,37.796875 5.125,37.796875 Z M30.75,6.52252344 C30.75,9.91911719 28.6703711,11.8243359 28.0852402,14.09375 L36.2310273,14.09375 C38.9053965,14.09375 40.9874277,16.3155977 40.9999199,18.7461289 C41.0066465,20.1825703 40.3956504,21.728959 39.4432812,22.6857324 L39.4344727,22.694541 C40.2221211,24.5633242 40.0940762,27.1818789 38.6891055,29.0582695 C39.3842637,31.1318926 38.6835801,33.6790977 37.3772656,35.0446699 C37.7214414,36.4538848 37.5569609,37.6532148 36.8849453,38.6187168 C35.2505508,40.9669277 31.1997187,41 27.7742168,41 L27.5463945,40.9999199 C23.6796621,40.9985586 20.5150547,39.5907051 17.9722539,38.4594414 C16.6944473,37.8909668 15.0236973,37.1872402 13.7560605,37.1639375 C13.2323496,37.1543281 12.8125,36.7269512 12.8125,36.2031602 L12.8125,19.0848594 C12.8125,18.8286094 12.9151602,18.5826895 13.097418,18.4025137 C16.2696328,15.2679355 17.6336836,11.9492578 20.2337402,9.34479688 C21.4192168,8.15707812 21.8503574,6.36300781 22.2671641,4.62803516 C22.6232715,3.14650977 23.3681582,0 24.984375,0 C26.90625,0 30.75,0.640625 30.75,6.52252344 Z" id="Shape"></path>
                                </g>
                            </g>
                        </g>
                    </g>
                </g>
            </g>
        </g>
    </g>
</svg>