<?xml version="1.0" encoding="UTF-8"?>
<svg width="51px" height="36px" viewBox="0 0 51 36" version="1.1" xmlns="http://www.w3.org/2000/svg" xmlns:xlink="http://www.w3.org/1999/xlink">
    <!-- Generator: Sketch 53.2 (72643) - https://sketchapp.com -->
    <title>Shape Copy</title>
    <desc>Created with Sketch.</desc>
    <g id="Page-1" stroke="none" stroke-width="1" fill="none" fill-rule="evenodd">
        <g id="Home-Copy-6" transform="translate(-1121.000000, -4086.000000)" fill="#0A2246" fill-rule="nonzero">
            <g id="Group-9" transform="translate(71.000000, 3884.000000)">
                <g id="Group-8">
                    <g id="Group-7" transform="translate(874.000000, 46.000000)">
                        <g id="Group-6" transform="translate(0.000000, 138.000000)">
                            <g id="cloud-upload-alt-solid" transform="translate(111.000000, 18.000000)">
                                <path d="M107.84,15.6375 C108.166719,14.7776786 108.35,13.8375 108.35,12.8571429 C108.35,8.59821429 104.923438,5.14285714 100.7,5.14285714 C99.1301562,5.14285714 97.6639062,5.625 96.4526563,6.44464286 C94.2453125,2.5875 90.1254687,0 85.4,0 C78.355625,0 72.65,5.75357143 72.65,12.8571429 C72.65,13.0741071 72.6579687,13.2910714 72.6659375,13.5080357 C68.2034375,15.0910714 65,19.3821429 65,24.4285714 C65,30.8169643 70.1398437,36 76.475,36 L105.8,36 C111.433906,36 116,31.3955357 116,25.7142857 C116,20.7401786 112.49375,16.5857143 107.84,15.6375 Z M96.3490625,20.5714286 L91.1375,20.5714286 L91.1375,29.5714286 C91.1375,30.2785714 90.56375,30.8571429 89.8625,30.8571429 L86.0375,30.8571429 C85.33625,30.8571429 84.7625,30.2785714 84.7625,29.5714286 L84.7625,20.5714286 L79.5509375,20.5714286 C78.4114062,20.5714286 77.845625,19.1892857 78.6504687,18.3776786 L87.0495312,9.90803571 C87.5435937,9.40982143 88.3564062,9.40982143 88.8504687,9.90803571 L97.2495312,18.3776786 C98.054375,19.1892857 97.480625,20.5714286 96.3490625,20.5714286 L96.3490625,20.5714286 Z" id="Shape-Copy"></path>
                            </g>
                        </g>
                    </g>
                </g>
            </g>
        </g>
    </g>
</svg>