<?xml version="1.0" encoding="UTF-8"?>
<svg width="18px" height="18px" viewBox="0 0 18 18" version="1.1" xmlns="http://www.w3.org/2000/svg" xmlns:xlink="http://www.w3.org/1999/xlink">
    <!-- Generator: Sketch 53.2 (72643) - https://sketchapp.com -->
    <title>Instagram-color</title>
    <desc>Created with Sketch.</desc>
    <g id="Page-1" stroke="none" stroke-width="1" fill="none" fill-rule="evenodd">
        <g id="Home-Copy-6" transform="translate(-1175.000000, -4730.000000)" fill="#454549">
            <g id="Group-3" transform="translate(0.000000, 4682.000000)">
                <g id="Group-31" transform="translate(1163.000000, 36.000000)">
                    <g id="Group-6-Copy-2">
                        <g id="Instagram-2" transform="translate(12.028302, 12.115385)">
                            <path d="M8.66039455,0 C11.0123946,0 11.3073185,0.0100416294 12.2310399,0.0524934835 C13.1528361,0.0948414587 13.7823898,0.242314906 14.3332536,0.457967555 C14.90275,0.680857102 15.3857184,0.979128122 15.8672086,1.46406957 C16.3486644,1.94904565 16.6447915,2.43551065 16.8661133,3.00913008 C17.0801815,3.56398204 17.226595,4.19809363 17.2686385,5.12656346 C17.3107853,6.05697237 17.3207547,6.35403147 17.3207547,8.72309424 C17.3207547,11.0921224 17.3107853,11.3891815 17.2686385,12.3195904 C17.226595,13.2480602 17.0801815,13.8821718 16.8661133,14.4370238 C16.6447915,15.0106432 16.3486644,15.4971082 15.8672086,15.9820843 C15.3857184,16.4670257 14.90275,16.7652967 14.3332536,16.9882209 C13.7823898,17.2038389 13.1528361,17.3513124 12.2310399,17.3936604 C11.3073185,17.4361122 11.0123946,17.4461538 8.66039455,17.4461538 C6.30836008,17.4461538 6.01343618,17.4361122 5.08971485,17.3936604 C4.16791865,17.3513124 3.53836492,17.2038389 2.98750111,16.9882209 C2.41800474,16.7652967 1.93503633,16.4670257 1.45354616,15.9820843 C0.972090364,15.4971082 0.67596325,15.0106432 0.454675784,14.4370238 C0.2405732,13.8821718 0.0941597591,13.2480602 0.0521161719,12.3195904 C0.0099694524,11.3891815 0,11.0921224 0,8.72309424 C0,6.35403147 0.0099694524,6.05697237 0.0521161719,5.12656346 C0.0941597591,4.19809363 0.2405732,3.56398204 0.454675784,3.00913008 C0.67596325,2.43551065 0.972090364,1.94904565 1.45354616,1.46406957 C1.93503633,0.979128122 2.41800474,0.680857102 2.98750111,0.457967555 C3.53836492,0.242314906 4.16791865,0.0948414587 5.08971485,0.0524934835 C6.01343618,0.0100416294 6.30836008,0 8.66039455,0 Z M8.66039455,1.57172276 C6.34796287,1.57172276 6.07404357,1.58062173 5.16084173,1.62258881 C4.31646349,1.66137028 3.85790306,1.80347665 3.55273468,1.92293741 C3.14849058,2.08117964 2.85999525,2.27020466 2.55695828,2.57547019 C2.25388692,2.8807011 2.06622058,3.17128508 1.90911576,3.57845584 C1.79051365,3.88583358 1.64942871,4.34771391 1.610926,5.19820529 C1.56926056,6.11801855 1.56042557,6.39392098 1.56042557,8.72309424 C1.56042557,11.0522329 1.56926056,11.3281353 1.610926,12.2479486 C1.64942871,13.0984399 1.79051365,13.5603203 1.90911576,13.867698 C2.06622058,14.2748688 2.2539213,14.5654527 2.55695828,14.8706837 C2.85999525,15.1759492 3.14849058,15.3649742 3.55273468,15.5232164 C3.85790306,15.6426772 4.31646349,15.7847836 5.16084173,15.823565 C6.07394044,15.8655321 6.34779099,15.8744311 8.66039455,15.8744311 C10.9729637,15.8744311 11.2468487,15.8655321 12.159913,15.823565 C13.0042912,15.7847836 13.4628517,15.6426772 13.76802,15.5232164 C14.1722641,15.3649742 14.4607595,15.1759492 14.7637964,14.8706837 C15.0668678,14.5654527 15.2545341,14.2748688 15.411639,13.867698 C15.5302411,13.5603203 15.671326,13.0984399 15.7098287,12.2479486 C15.7514942,11.3281353 15.7603292,11.0522329 15.7603292,8.72309424 C15.7603292,6.39392098 15.7514942,6.11801855 15.7098287,5.19820529 C15.671326,4.34771391 15.5302411,3.88583358 15.411639,3.57845584 C15.2545341,3.17128508 15.0668678,2.8807011 14.7637964,2.57547019 C14.4607595,2.27020466 14.1722641,2.08117964 13.76802,1.92293741 C13.4628517,1.80347665 13.0042912,1.66137028 12.159913,1.62258881 C11.2467111,1.58062173 10.9727918,1.57172276 8.66039455,1.57172276 Z M8.66039455,4.24366185 C11.1165238,4.24366185 13.1075954,6.24914838 13.1075954,8.72309424 C13.1075954,11.1970055 11.1165238,13.202492 8.66039455,13.202492 C6.20423087,13.202492 4.21315934,11.1970055 4.21315934,8.72309424 C4.21315934,6.24914838 6.20423087,4.24366185 8.66039455,4.24366185 Z M8.66039455,11.6307692 C10.2547163,11.6307692 11.5471698,10.3289585 11.5471698,8.72309424 C11.5471698,7.11719531 10.2547163,5.81538462 8.66039455,5.81538462 C7.06603847,5.81538462 5.77358491,7.11719531 5.77358491,8.72309424 C5.77358491,10.3289585 7.06603847,11.6307692 8.66039455,11.6307692 Z M14.3225622,4.06668679 C14.3225622,4.64480763 13.8572638,5.11344009 13.2832984,5.11344009 C12.7093673,5.11344009 12.2440689,4.64480763 12.2440689,4.06668679 C12.2440689,3.48856594 12.7093673,3.01989886 13.2832984,3.01989886 C13.8572638,3.01989886 14.3225622,3.48856594 14.3225622,4.06668679 Z" id="Instagram"></path>
                        </g>
                    </g>
                </g>
            </g>
        </g>
    </g>
</svg>